# xmcd CD database file
#
# Track frame offsets:
#	150
#	24813
#	41054
#	59769
#	79776
#	96781
#	113956
#	133701
#	153264
#	172694
#	191908
#	210834
#
# Disc length: 3078 seconds
#
# Revision: 0
# Processed by: cddbd v1.5.2PL0 Copyright (c) Steve Scherf et al.
# Submitted via: CDex 1.70beta2
#
DISCID=960c040c
DTITLE=Orquesta Magia Caribeña - Federico Boogaloo
DYEAR=2007
DGENRE=Salsa
TTITLE0=Orquesta Magia Caribeña - Señor Gallo
TTITLE1=Orquesta Magia Caribeña - Federico Boogaloo
TTITLE2=Orquesta Magia Caribeña - Rosa, La Peligrosa
TTITLE3=Orquesta Magia Caribeña - Hay Algo En Ti
TTITLE4=Orquesta Magia Caribeña - Rumba Buena
TTITLE5=Orquesta Magia Caribeña - El Amor Que Buscaba
TTITLE6=Orquesta Magia Caribeña - Pasión Gitana
TTITLE7=Orquesta Magia Caribeña - Yo No Sé Que Me Pasó
TTITLE8=Orquesta Magia Caribeña - Quisiera
TTITLE9=Orquesta Magia Caribeña - Te Quiero
TTITLE10=Orquesta Magia Caribeña - Costumbres
TTITLE11=Orquesta Magia Caribeña - Señor Gallo [Radio Version]
EXTD=YEAR: 2007
EXTT0=
EXTT1=
EXTT2=
EXTT3=
EXTT4=
EXTT5=
EXTT6=
EXTT7=
EXTT8=
EXTT9=
EXTT10=
EXTT11=
PLAYORDER=
